{"glyphs":{"0":{"ha":1158,"x_min":79,"x_max":1089,"o":"m 247 1000 l 921 1000 q 1040 951 990 1000 q 1089 831 1089 901 l 1089 168 q 1040 49 1089 99 q 921 0 990 0 l 247 0 q 128 49 176 0 q 79 168 79 99 l 79 831 q 128 951 79 901 q 247 1000 176 1000 m 960 885 l 247 885 q 209 869 225 885 q 193 831 193 853 l 193 251 l 960 885 m 207 114 l 921 114 q 959 130 943 114 q 975 168 975 146 l 975 747 l 207 114 z "},"1":{"ha":543,"x_min":1,"x_max":419,"o":"m 1 688 l 264 1000 l 419 1000 l 419 0 l 304 0 l 304 872 q 227 779 285 847 q 150 688 169 711 l 1 688 z "},"2":{"ha":1153,"x_min":79,"x_max":1089,"o":"m 247 1001 l 921 1001 q 1040 952 990 1001 q 1089 832 1089 903 l 1089 597 q 1040 478 1089 528 q 921 429 990 429 l 247 429 q 209 413 225 429 q 193 375 193 397 l 193 168 q 209 130 193 146 q 247 114 225 114 l 1089 114 l 1089 0 l 79 0 l 79 375 q 128 494 79 446 q 247 543 176 543 l 921 543 q 959 559 943 543 q 975 597 975 575 l 975 832 q 959 870 975 854 q 921 886 943 886 l 247 886 q 209 870 225 886 q 193 832 193 854 l 193 793 l 79 793 l 79 832 q 128 952 79 903 q 247 1001 176 1001 z "},"3":{"ha":1147,"x_min":74,"x_max":1085,"o":"m 1024 550 l 1029 525 q 1085 400 1085 474 l 1085 168 q 1035 49 1085 99 q 917 0 986 0 l 243 0 q 123 49 172 0 q 74 168 74 99 l 74 190 l 189 190 l 189 168 q 205 130 189 146 q 243 114 221 114 l 917 114 q 955 130 939 114 q 971 168 971 146 l 971 400 q 955 438 971 422 q 917 454 939 454 l 265 454 l 265 568 l 872 568 q 910 584 894 568 q 926 622 926 600 l 926 832 q 910 870 926 854 q 872 886 894 886 l 243 886 q 205 870 221 886 q 189 832 189 854 l 189 796 l 74 796 l 74 832 q 123 952 74 903 q 243 1001 172 1001 l 872 1001 q 992 952 943 1001 q 1040 832 1040 903 l 1040 622 q 1024 550 1040 586 z "},"4":{"ha":1014,"x_min":8,"x_max":975,"o":"m 819 372 l 975 372 l 975 258 l 819 258 l 819 0 l 706 0 l 706 258 l 8 258 l 8 386 l 692 1001 l 819 1001 l 819 372 m 706 819 l 154 372 l 706 372 l 706 819 z "},"5":{"ha":1153,"x_min":79,"x_max":1089,"o":"m 193 832 l 193 628 q 209 589 193 606 q 247 572 225 572 l 921 572 q 1040 524 990 572 q 1089 404 1089 475 l 1089 168 q 1040 49 1089 99 q 921 0 990 0 l 247 0 q 128 49 176 0 q 79 168 79 99 l 79 208 l 193 208 l 193 168 q 209 130 193 146 q 247 114 225 114 l 921 114 q 959 130 943 114 q 975 168 975 146 l 975 404 q 959 442 975 426 q 921 458 943 458 l 79 458 l 79 1001 l 1089 1001 l 1089 886 l 247 886 q 209 870 225 886 q 193 832 193 854 z "},"6":{"ha":1139,"x_min":79,"x_max":1089,"o":"m 247 576 l 921 576 q 1040 528 990 576 q 1089 408 1089 479 l 1089 168 q 1040 49 1089 99 q 921 0 990 0 l 247 0 q 128 49 176 0 q 79 168 79 99 l 79 832 q 128 952 79 903 q 247 1001 176 1001 l 914 1001 l 914 886 l 247 886 q 209 870 225 886 q 193 832 193 854 l 193 632 q 209 593 193 610 q 247 576 225 576 m 975 168 l 975 408 q 959 447 975 431 q 921 463 943 463 l 193 463 l 193 168 q 209 130 193 146 q 247 114 225 114 l 921 114 q 959 130 943 114 q 975 168 975 146 z "},"7":{"ha":917,"x_min":4,"x_max":839,"o":"m 671 886 l 4 886 l 4 1001 l 671 1001 q 790 952 740 1001 q 839 832 839 903 l 839 0 l 725 0 l 725 832 q 709 870 725 854 q 671 886 693 886 z "},"8":{"ha":1158,"x_min":79,"x_max":1089,"o":"m 1089 860 l 1089 628 q 1047 515 1089 572 q 1089 404 1089 461 l 1089 168 q 1040 49 1089 99 q 921 0 990 0 l 247 0 q 128 49 176 0 q 79 168 79 99 l 79 404 q 121 515 79 461 q 79 628 79 572 l 79 832 q 128 952 79 903 q 247 1001 176 1001 l 921 1001 q 1024 959 976 1001 q 1089 860 1072 917 m 975 168 l 975 404 q 959 442 975 426 q 921 458 943 458 l 247 458 q 209 442 225 458 q 193 404 193 426 l 193 168 q 209 130 193 146 q 247 114 225 114 l 921 114 q 959 130 943 114 q 975 168 975 146 m 975 611 l 975 831 q 959 869 975 853 q 921 885 943 885 l 247 885 q 209 869 225 885 q 193 831 193 853 l 193 611 q 209 573 193 589 q 247 557 225 557 l 921 557 q 959 573 943 557 q 975 611 975 589 z "},"9":{"ha":1150,"x_min":71,"x_max":1082,"o":"m 914 424 l 240 424 q 120 473 169 424 q 71 592 71 522 l 71 832 q 120 952 71 903 q 240 1001 169 1001 l 914 1001 q 1033 952 983 1001 q 1082 832 1082 903 l 1082 168 q 1033 49 1082 99 q 914 0 983 0 l 240 0 q 142 32 186 0 q 81 114 97 64 l 914 114 q 952 130 936 114 q 968 168 968 146 l 968 369 q 952 408 968 392 q 914 424 936 424 m 186 832 l 186 592 q 202 553 186 569 q 240 538 218 538 l 968 538 l 968 832 q 952 870 968 854 q 914 886 936 886 l 240 886 q 202 870 218 886 q 186 832 186 854 z "}," ":{"ha":378,"x_min":0,"x_max":0,"o":""},"!":{"ha":306,"x_min":81,"x_max":194,"o":"m 194 0 l 81 0 l 81 114 l 194 114 l 194 0 m 81 282 l 81 1000 l 194 1000 l 194 282 l 81 282 z "},"\"":{"ha":517,"x_min":82,"x_max":411,"o":"m 196 1000 l 196 806 l 82 806 l 82 1000 l 196 1000 m 411 1000 l 411 806 l 297 806 l 297 1000 l 411 1000 z "},"#":{"ha":1107,"x_min":44,"x_max":1074,"o":"m 1074 771 l 1074 657 l 906 657 l 807 351 l 1028 351 l 1028 238 l 771 238 l 697 0 l 583 0 l 658 238 l 297 238 l 224 0 l 110 0 l 185 238 l 44 238 l 44 351 l 221 351 l 319 657 l 89 657 l 89 771 l 356 771 l 433 999 l 546 999 l 467 771 l 829 771 l 907 999 l 1019 999 l 940 771 l 1074 771 m 335 351 l 694 351 l 793 657 l 432 657 l 335 351 z "},"$":{"ha":1094,"x_min":47,"x_max":1058,"o":"m 1058 832 l 1058 793 l 943 793 l 943 832 q 927 870 943 854 q 889 886 911 886 l 610 886 l 610 558 l 889 558 q 1009 509 960 558 q 1058 390 1058 460 l 1058 168 q 1009 49 1058 99 q 889 0 960 0 l 610 0 l 610 -158 l 496 -158 l 496 0 l 215 0 q 97 49 146 0 q 47 168 47 99 l 47 208 l 161 208 l 161 168 q 177 130 161 146 q 215 114 193 114 l 496 114 l 496 444 l 215 444 q 97 493 146 444 q 47 613 47 542 l 47 832 q 97 952 47 903 q 215 1001 146 1001 l 496 1001 l 496 1160 l 610 1160 l 610 1001 l 889 1001 q 1009 952 960 1001 q 1058 832 1058 903 m 889 444 l 610 444 l 610 114 l 889 114 q 927 130 911 114 q 943 168 943 146 l 943 390 q 927 428 943 413 q 889 444 911 444 m 496 558 l 496 886 l 215 886 q 177 870 193 886 q 161 832 161 854 l 161 613 q 177 574 161 590 q 215 558 193 558 l 496 558 z "},"%":{"ha":1342,"x_min":67,"x_max":1294,"o":"m 190 0 l 190 150 l 1201 1001 l 1201 853 l 190 0 m 236 1000 l 367 1000 q 487 951 438 1000 q 536 831 536 901 l 536 714 q 487 595 536 644 q 367 546 438 546 l 236 546 q 116 595 165 546 q 67 714 67 644 l 67 831 q 116 951 67 901 q 236 1000 165 1000 m 206 631 l 397 631 q 435 647 419 631 q 451 685 451 663 l 451 860 q 435 898 451 882 q 397 914 419 914 l 206 914 q 167 898 183 914 q 151 860 151 882 l 151 685 q 167 647 151 663 q 206 631 183 631 m 994 453 l 1126 453 q 1245 403 1196 453 q 1294 285 1294 354 l 1294 167 q 1245 48 1294 97 q 1126 -1 1196 -1 l 994 -1 q 875 48 924 -1 q 826 167 826 97 l 826 285 q 875 403 826 354 q 994 453 924 453 m 965 83 l 1156 83 q 1194 99 1178 83 q 1210 138 1210 115 l 1210 314 q 1194 352 1210 336 q 1156 368 1178 368 l 965 368 q 927 352 943 368 q 911 314 911 336 l 911 138 q 927 99 911 115 q 965 83 943 83 z "},"&":{"ha":1303,"x_min":74,"x_max":1269,"o":"m 1083 232 l 1269 122 l 1269 22 l 1079 129 q 1012 35 1056 71 q 915 0 968 0 l 242 0 q 123 49 172 0 q 74 168 74 99 l 74 467 q 111 527 74 497 q 211 557 149 557 q 132 690 132 617 l 132 829 q 181 949 132 900 q 300 999 231 999 l 871 999 q 976 956 928 999 q 1040 857 1024 914 l 1040 781 l 925 781 l 925 828 q 909 866 925 850 q 871 882 893 882 l 300 882 q 262 866 278 882 q 246 828 246 850 l 246 635 l 969 269 l 969 463 l 1083 463 l 1083 232 m 242 114 l 915 114 q 946 128 931 114 q 971 164 961 142 l 263 521 l 242 521 q 203 505 219 521 q 188 467 188 489 l 188 168 q 203 130 188 146 q 242 114 219 114 z "},"'":{"ha":311,"x_min":82,"x_max":196,"o":"m 196 1000 l 196 806 l 82 806 l 82 1000 l 196 1000 z "},"(":{"ha":385,"x_min":72,"x_max":281,"o":"m 240 114 l 281 114 l 281 0 l 240 0 q 122 49 171 0 q 72 168 72 99 l 72 831 q 122 951 72 901 q 240 1000 171 1000 l 281 1000 l 281 885 l 240 885 q 202 869 218 885 q 186 831 186 853 l 186 168 q 202 130 186 146 q 240 114 218 114 z "},")":{"ha":386,"x_min":78,"x_max":286,"o":"m 78 0 l 78 114 l 117 114 q 155 130 139 114 q 171 168 171 146 l 171 831 q 155 869 171 853 q 117 885 139 885 l 78 885 l 78 1000 l 117 1000 q 236 951 186 1000 q 286 831 286 901 l 286 168 q 236 49 286 99 q 117 0 186 0 l 78 0 z "},"*":{"ha":682,"x_min":35,"x_max":625,"o":"m 588 853 l 625 743 l 422 678 l 547 504 q 502 471 531 492 q 456 438 474 450 l 329 608 l 204 438 q 154 473 183 453 q 111 503 125 493 l 236 678 l 35 743 l 68 853 l 272 785 l 272 999 l 386 999 l 386 786 l 588 853 z "},"+":{"ha":601,"x_min":24,"x_max":565,"o":"m 235 681 l 349 681 l 349 468 l 565 468 l 565 354 l 349 354 l 349 139 l 235 139 l 235 354 l 24 354 l 24 468 l 235 468 l 235 681 z "},",":{"ha":268,"x_min":75,"x_max":189,"o":"m 75 114 l 189 114 l 189 -22 q 157 -122 189 -78 q 75 -182 125 -165 l 75 114 z "},"-":{"ha":718,"x_min":82,"x_max":624,"o":"m 624 468 l 624 354 l 82 354 l 82 468 l 624 468 z "},".":{"ha":297,"x_min":75,"x_max":189,"o":"m 189 114 l 189 0 l 75 0 l 75 114 l 189 114 z "},"/":{"ha":724,"x_min":8,"x_max":711,"o":"m 8 147 l 711 1000 l 711 856 l 8 0 l 8 147 z "},":":{"ha":297,"x_min":75,"x_max":189,"o":"m 75 114 l 189 114 l 189 0 l 75 0 l 75 114 m 189 817 l 189 703 l 75 703 l 75 817 l 189 817 z "},";":{"ha":268,"x_min":71,"x_max":185,"o":"m 185 817 l 185 703 l 71 703 l 71 817 l 185 817 m 71 114 l 185 114 l 185 -22 q 153 -122 185 -78 q 71 -182 121 -165 l 71 114 z "},"<":{"ha":657,"x_min":7,"x_max":565,"o":"m 121 411 l 565 154 l 565 22 l 7 344 l 7 479 l 565 800 l 565 668 l 121 411 z "},"=":{"ha":886,"x_min":82,"x_max":800,"o":"m 800 324 l 800 210 l 82 210 l 82 324 l 800 324 m 800 601 l 800 488 l 82 488 l 82 601 l 800 601 z "},">":{"ha":660,"x_min":82,"x_max":640,"o":"m 82 19 l 82 151 l 526 408 l 82 665 l 82 797 l 640 476 l 640 342 l 82 19 z "},"?":{"ha":942,"x_min":43,"x_max":929,"o":"m 43 1000 l 761 999 q 880 949 831 999 q 929 829 929 900 l 929 560 q 880 441 929 490 q 761 392 831 392 l 381 392 q 342 376 358 392 q 326 338 326 360 l 326 279 l 213 279 l 213 338 q 262 457 213 408 q 381 506 311 506 l 761 506 q 799 522 783 506 q 815 560 815 538 l 815 829 q 799 867 815 851 q 761 883 783 883 l 43 883 l 43 1000 m 326 0 l 213 0 l 213 114 l 326 114 l 326 0 z "},"@":{"ha":1154,"x_min":79,"x_max":1089,"o":"m 518 721 l 650 721 q 769 672 719 721 q 818 553 818 622 l 818 353 l 975 353 l 975 831 q 959 869 975 853 q 921 885 943 885 l 247 885 q 209 869 225 885 q 193 831 193 853 l 193 168 q 209 130 193 146 q 247 114 225 114 l 1089 114 l 1089 0 l 247 0 q 128 49 176 0 q 79 168 79 99 l 79 831 q 128 951 79 901 q 247 1000 176 1000 l 921 1000 q 1040 951 990 1000 q 1089 831 1089 901 l 1089 267 l 518 267 q 399 316 447 267 q 350 436 350 365 l 350 553 q 399 672 350 622 q 518 721 447 721 m 489 353 l 733 353 l 733 582 q 717 620 733 604 q 679 636 701 636 l 489 636 q 451 620 467 636 q 435 582 435 604 l 435 407 q 451 369 435 385 q 489 353 467 353 z "},"A":{"ha":1161,"x_min":81,"x_max":1081,"o":"m 247 1000 l 914 1000 q 1032 951 983 1000 q 1081 833 1081 903 l 1081 0 l 968 0 l 968 365 l 193 365 l 193 0 l 81 0 l 81 833 q 129 951 81 903 q 247 1000 178 1000 m 193 478 l 968 478 l 968 833 q 952 872 968 856 q 914 888 936 888 l 247 888 q 209 872 225 888 q 193 833 193 856 l 193 478 z "},"B":{"ha":1156,"x_min":82,"x_max":1082,"o":"m 1021 547 l 1026 524 q 1082 400 1082 472 l 1082 167 q 1033 49 1082 97 q 915 0 985 0 l 82 0 l 82 1000 l 872 1000 q 990 951 942 1000 q 1039 833 1039 903 l 1039 621 q 1021 547 1039 583 m 872 888 l 249 888 q 210 872 226 888 q 194 833 194 856 l 194 621 q 210 583 194 599 q 249 567 226 567 l 872 567 q 910 583 894 567 q 925 621 925 599 l 925 833 q 910 872 925 856 q 872 888 894 888 m 969 167 l 969 400 q 953 438 969 422 q 915 454 938 454 l 249 454 q 210 438 226 454 q 194 400 194 422 l 194 167 q 210 128 194 144 q 249 113 226 113 l 915 113 q 953 128 938 113 q 969 167 969 144 z "},"C":{"ha":1142,"x_min":78,"x_max":1075,"o":"m 1075 888 l 244 888 q 206 872 222 888 q 190 833 190 856 l 190 167 q 206 128 190 144 q 244 113 222 113 l 1075 113 l 1075 0 l 244 0 q 126 49 175 0 q 78 167 78 97 l 78 833 q 126 951 78 903 q 244 1000 175 1000 l 1075 1000 l 1075 888 z "},"D":{"ha":1158,"x_min":81,"x_max":1081,"o":"m 81 1000 l 914 1000 q 1032 951 983 1000 q 1081 833 1081 903 l 1081 167 q 1032 49 1081 97 q 914 0 983 0 l 81 0 l 81 1000 m 968 167 l 968 833 q 952 872 968 856 q 914 888 936 888 l 247 888 q 209 872 225 888 q 193 833 193 856 l 193 167 q 209 128 193 144 q 247 113 225 113 l 914 113 q 952 128 936 113 q 968 167 968 144 z "},"E":{"ha":1064,"x_min":81,"x_max":993,"o":"m 993 1000 l 993 888 l 193 888 l 193 557 l 836 557 l 836 443 l 193 443 l 193 113 l 993 113 l 993 0 l 81 0 l 81 1000 l 993 1000 z "},"F":{"ha":1004,"x_min":81,"x_max":993,"o":"m 81 1000 l 993 1000 l 993 888 l 193 888 l 193 557 l 836 557 l 836 443 l 193 443 l 193 0 l 81 0 l 81 1000 z "},"G":{"ha":1153,"x_min":78,"x_max":1078,"o":"m 1078 833 l 1078 793 l 965 793 l 965 833 q 949 872 965 856 q 911 888 933 888 l 244 888 q 206 872 222 888 q 190 833 190 856 l 190 167 q 206 128 190 144 q 244 113 222 113 l 911 113 q 949 128 933 113 q 965 167 965 144 l 965 414 l 718 414 l 718 528 l 1078 528 l 1078 167 q 1029 49 1078 97 q 911 0 981 0 l 244 0 q 126 49 175 0 q 78 167 78 97 l 78 833 q 126 951 78 903 q 244 1000 175 1000 l 911 1000 q 1029 951 981 1000 q 1078 833 1078 903 z "},"H":{"ha":1182,"x_min":79,"x_max":1104,"o":"m 990 1000 l 1104 1000 l 1104 0 l 990 0 l 990 443 l 192 443 l 192 0 l 79 0 l 79 1000 l 192 1000 l 192 557 l 990 557 l 990 1000 z "},"I":{"ha":306,"x_min":79,"x_max":192,"o":"m 79 0 l 79 1000 l 192 1000 l 192 0 l 79 0 z "},"J":{"ha":1083,"x_min":6,"x_max":1006,"o":"m 893 167 l 893 1000 l 1006 1000 l 1006 167 q 957 49 1006 97 q 839 0 908 0 l 172 0 q 54 49 103 0 q 6 167 6 97 l 6 246 l 118 246 l 118 167 q 134 128 118 144 q 172 113 150 113 l 839 113 q 877 128 861 113 q 893 167 893 144 z "},"K":{"ha":1107,"x_min":79,"x_max":1033,"o":"m 888 1000 l 1032 1000 l 614 500 l 1033 0 l 888 0 l 515 443 l 193 443 l 193 0 l 79 0 l 79 1000 l 193 1000 l 193 557 l 515 557 l 888 1000 z "},"L":{"ha":1082,"x_min":79,"x_max":1079,"o":"m 79 0 l 79 1001 l 192 1001 l 192 113 l 1079 113 l 1079 0 l 79 0 z "},"M":{"ha":1289,"x_min":78,"x_max":1217,"o":"m 647 506 l 1063 1000 l 1217 1000 l 1217 0 l 1104 0 l 1104 872 l 647 329 l 190 872 l 190 0 l 78 0 l 78 1000 l 232 1000 l 647 506 z "},"N":{"ha":1156,"x_min":78,"x_max":1078,"o":"m 965 128 l 965 1000 l 1078 1000 l 1078 0 l 924 0 l 190 872 l 190 0 l 78 0 l 78 1000 l 232 1000 l 965 128 z "},"O":{"ha":1150,"x_min":75,"x_max":1075,"o":"m 242 1000 l 908 1000 q 1026 951 978 1000 q 1075 833 1075 903 l 1075 167 q 1026 49 1075 97 q 908 0 978 0 l 242 0 q 124 49 172 0 q 75 167 75 97 l 75 833 q 124 951 75 903 q 242 1000 172 1000 m 242 113 l 908 113 q 947 128 931 113 q 963 167 963 144 l 963 833 q 947 872 963 856 q 908 888 931 888 l 242 888 q 203 872 219 888 q 188 833 188 856 l 188 167 q 203 128 188 144 q 242 113 219 113 z "},"P":{"ha":1099,"x_min":78,"x_max":1078,"o":"m 78 999 l 911 999 q 1029 950 981 999 q 1078 832 1078 901 l 1078 539 q 1029 421 1078 469 q 911 372 981 372 l 244 372 q 190 378 232 372 l 190 0 l 78 0 l 78 999 m 965 539 l 965 832 q 949 870 965 854 q 911 886 933 886 l 244 886 q 206 870 222 886 q 190 832 190 854 l 190 539 q 206 501 190 517 q 244 486 222 486 l 911 486 q 949 501 933 486 q 965 539 965 517 z "},"Q":{"ha":1228,"x_min":75,"x_max":1206,"o":"m 1069 113 l 1206 113 l 1206 0 l 242 0 q 124 49 172 0 q 75 167 75 97 l 75 833 q 124 951 75 903 q 242 1000 172 1000 l 908 1000 q 1026 951 978 1000 q 1075 833 1075 903 l 1075 167 q 1069 113 1075 154 m 242 113 l 908 113 q 947 128 931 113 q 963 167 963 144 l 963 833 q 947 872 963 856 q 908 888 931 888 l 242 888 q 203 872 219 888 q 188 833 188 856 l 188 167 q 203 128 188 144 q 242 113 219 113 z "},"R":{"ha":1146,"x_min":76,"x_max":1076,"o":"m 1076 832 l 1076 539 q 1028 421 1076 469 q 910 372 979 372 l 757 372 l 1071 0 l 922 0 l 610 372 l 243 372 q 189 378 231 372 l 189 0 l 76 0 l 76 999 l 910 999 q 1028 950 979 999 q 1076 832 1076 901 m 243 486 l 910 486 q 947 501 932 486 q 963 539 963 517 l 963 832 q 947 870 963 854 q 910 886 932 886 l 243 886 q 205 870 221 886 q 189 832 189 854 l 189 539 q 205 501 189 517 q 243 486 221 486 z "},"S":{"ha":1142,"x_min":71,"x_max":1071,"o":"m 1071 833 l 1071 794 l 958 794 l 958 833 q 942 872 958 856 q 904 888 926 888 l 238 888 q 199 872 215 888 q 183 833 183 856 l 183 610 q 199 572 183 588 q 238 557 215 557 l 904 557 q 1022 508 974 557 q 1071 390 1071 460 l 1071 167 q 1022 49 1071 97 q 904 0 974 0 l 238 0 q 119 49 168 0 q 71 167 71 97 l 71 206 l 183 206 l 183 167 q 199 128 183 144 q 238 113 215 113 l 904 113 q 942 128 926 113 q 958 167 958 144 l 958 390 q 942 428 958 413 q 904 443 926 443 l 238 443 q 119 492 168 443 q 71 610 71 540 l 71 833 q 119 951 71 903 q 238 1000 168 1000 l 904 1000 q 1022 951 974 1000 q 1071 833 1071 903 z "},"T":{"ha":1054,"x_min":28,"x_max":1028,"o":"m 28 1000 l 1028 1000 l 1028 888 l 585 888 l 585 0 l 472 0 l 472 888 l 28 888 l 28 1000 z "},"U":{"ha":1150,"x_min":75,"x_max":1075,"o":"m 963 167 l 963 1000 l 1075 1000 l 1075 167 q 1026 49 1075 97 q 908 0 978 0 l 242 0 q 124 49 172 0 q 75 167 75 97 l 75 1000 l 188 1000 l 188 167 q 203 128 188 144 q 242 113 219 113 l 908 113 q 947 128 931 113 q 963 167 963 144 z "},"V":{"ha":1393,"x_min":49,"x_max":1336,"o":"m 693 110 l 1204 1000 l 1336 1000 l 758 0 l 628 0 l 49 1000 l 181 1000 l 693 110 z "},"W":{"ha":1638,"x_min":49,"x_max":1594,"o":"m 1472 1000 l 1594 1000 l 1231 0 l 1132 0 l 821 854 l 510 0 l 413 0 l 49 1000 l 168 1000 l 461 197 l 753 1000 l 889 1000 l 1182 197 l 1472 1000 z "},"X":{"ha":1128,"x_min":64,"x_max":1050,"o":"m 904 1000 l 1049 1000 l 629 500 l 1050 0 l 904 0 l 557 413 l 208 0 l 64 0 l 483 500 l 64 1000 l 208 1000 l 557 588 l 904 1000 z "},"Y":{"ha":1119,"x_min":24,"x_max":1056,"o":"m 924 1000 l 1056 1000 l 596 376 l 596 0 l 483 0 l 483 376 l 24 1000 l 153 1000 l 540 511 l 924 1000 z "},"Z":{"ha":1140,"x_min":71,"x_max":1071,"o":"m 71 888 l 71 1000 l 1071 1000 l 1071 846 l 199 113 l 1071 113 l 1071 0 l 71 0 l 71 154 l 943 888 l 71 888 z "},"[":{"ha":382,"x_min":75,"x_max":283,"o":"m 75 0 l 75 1001 l 283 1001 l 283 886 l 189 886 l 189 114 l 283 114 l 283 0 l 75 0 z "},"\\":{"ha":722,"x_min":7,"x_max":710,"o":"m 710 149 l 710 1 l 7 863 l 7 1007 l 710 149 z "},"]":{"ha":383,"x_min":71,"x_max":279,"o":"m 71 886 l 71 1001 l 279 1001 l 279 0 l 71 0 l 71 114 l 164 114 l 164 886 l 71 886 z "},"_":{"ha":1150,"x_min":75,"x_max":1086,"o":"m 1086 0 l 1086 -114 l 75 -114 l 75 0 l 1086 0 z "},"`":{"ha":296,"x_min":44,"x_max":204,"o":"m 157 1404 l 204 1211 l 93 1211 l 44 1404 l 157 1404 z "},"a":{"ha":964,"x_min":72,"x_max":893,"o":"m 724 806 q 844 756 794 806 q 893 638 893 707 l 893 0 l 240 0 q 122 49 171 0 q 72 168 72 99 l 72 460 l 778 460 l 778 638 q 762 676 778 660 q 724 692 746 692 l 72 692 l 72 806 l 724 806 m 778 114 l 778 346 l 186 346 l 186 168 q 202 130 186 146 q 240 114 218 114 l 778 114 z "},"b":{"ha":926,"x_min":75,"x_max":896,"o":"m 728 806 q 847 756 797 806 q 896 638 896 707 l 896 168 q 847 49 896 99 q 728 0 797 0 l 75 0 l 75 1069 l 189 1069 l 189 806 l 728 806 m 782 168 l 782 638 q 766 676 782 660 q 728 692 750 692 l 244 692 q 206 676 222 692 q 189 638 189 660 l 189 168 q 206 130 189 146 q 244 114 222 114 l 728 114 q 766 130 750 114 q 782 168 782 146 z "},"c":{"ha":965,"x_min":71,"x_max":892,"o":"m 239 114 l 892 114 l 892 0 l 239 0 q 120 49 169 0 q 71 168 71 99 l 71 638 q 120 756 71 707 q 239 806 169 806 l 889 806 l 889 692 l 239 692 q 201 676 217 692 q 185 638 185 660 l 185 168 q 201 130 185 146 q 239 114 217 114 z "},"d":{"ha":926,"x_min":32,"x_max":853,"o":"m 739 1069 l 853 1069 l 853 0 l 201 0 q 81 49 131 0 q 32 168 32 99 l 32 638 q 81 756 32 707 q 201 806 131 806 l 739 806 l 739 1069 m 201 114 l 685 114 q 723 130 707 114 q 739 168 739 146 l 739 638 q 723 676 739 660 q 685 692 707 692 l 201 692 q 163 676 179 692 q 147 638 147 660 l 147 168 q 163 130 147 146 q 201 114 179 114 z "},"e":{"ha":961,"x_min":71,"x_max":892,"o":"m 722 806 q 842 756 793 806 q 892 638 892 707 l 892 346 l 185 346 l 185 168 q 201 130 185 146 q 239 114 217 114 l 892 114 l 892 0 l 239 0 q 120 49 169 0 q 71 168 71 99 l 71 638 q 120 756 71 707 q 239 806 169 806 l 722 806 m 185 460 l 776 460 l 776 638 q 760 676 776 660 q 722 692 744 692 l 239 692 q 201 676 217 692 q 185 638 185 660 l 185 460 z "},"f":{"ha":565,"x_min":74,"x_max":536,"o":"m 242 956 q 203 940 219 956 q 188 901 188 924 l 188 806 l 536 806 l 536 692 l 188 692 l 188 0 l 74 0 l 74 901 q 122 1021 74 972 q 242 1069 171 1069 l 536 1069 l 536 956 l 242 956 z "},"g":{"ha":949,"x_min":57,"x_max":876,"o":"m 876 -149 q 828 -269 876 -219 q 708 -318 779 -318 l 206 -318 l 206 -203 l 708 -203 q 747 -187 731 -203 q 763 -149 763 -171 l 763 0 l 225 0 q 106 49 156 0 q 57 168 57 99 l 57 638 q 106 756 57 707 q 225 806 156 806 l 708 806 q 828 756 779 806 q 876 638 876 707 l 876 -149 m 225 114 l 708 114 q 747 130 731 114 q 763 168 763 146 l 763 638 q 747 676 763 660 q 708 692 731 692 l 225 692 q 187 676 203 692 q 171 638 171 660 l 171 168 q 187 130 171 146 q 225 114 203 114 z "},"h":{"ha":928,"x_min":75,"x_max":896,"o":"m 728 806 q 847 756 797 806 q 896 638 896 707 l 896 0 l 782 0 l 782 638 q 766 676 782 660 q 728 692 750 692 l 244 692 q 206 676 222 692 q 189 638 189 660 l 189 0 l 75 0 l 75 1069 l 189 1069 l 189 806 l 728 806 z "},"i":{"ha":289,"x_min":72,"x_max":186,"o":"m 72 0 l 72 806 l 186 806 l 186 0 l 72 0 m 72 1069 l 186 1069 l 186 956 l 72 956 l 72 1069 z "},"j":{"ha":332,"x_min":-260,"x_max":250,"o":"m 135 1069 l 250 1069 l 250 956 l 135 956 l 135 1069 m 250 806 l 250 -168 q 201 -288 250 -239 q 81 -337 151 -337 l -260 -337 l -260 -222 l 81 -222 q 119 -206 103 -222 q 135 -168 135 -190 l 135 806 l 250 806 z "},"k":{"ha":897,"x_min":75,"x_max":878,"o":"m 728 806 l 878 806 l 513 403 l 876 0 l 728 0 l 411 346 l 189 346 l 189 0 l 75 0 l 75 1069 l 189 1069 l 189 460 l 411 460 l 728 806 z "},"l":{"ha":419,"x_min":72,"x_max":376,"o":"m 72 1069 l 186 1069 l 186 168 q 202 130 186 146 q 240 114 218 114 l 376 114 l 376 0 l 240 0 q 122 49 171 0 q 72 168 72 99 l 72 1069 z "},"m":{"ha":1358,"x_min":75,"x_max":1307,"o":"m 1139 806 q 1258 756 1210 806 q 1307 638 1307 707 l 1307 0 l 1194 0 l 1194 638 q 1178 676 1194 660 q 1139 692 1161 692 l 804 692 q 766 676 782 692 q 750 638 750 660 l 750 0 l 635 0 l 635 638 q 619 676 635 660 q 581 692 603 692 l 244 692 q 206 676 222 692 q 190 638 190 660 l 190 0 l 75 0 l 75 806 l 1139 806 z "},"n":{"ha":967,"x_min":75,"x_max":896,"o":"m 728 806 q 847 756 797 806 q 896 638 896 707 l 896 0 l 782 0 l 782 638 q 766 676 782 660 q 728 692 750 692 l 244 692 q 206 676 222 692 q 189 638 189 660 l 189 0 l 75 0 l 75 806 l 728 806 z "},"o":{"ha":961,"x_min":71,"x_max":892,"o":"m 239 806 l 722 806 q 842 756 793 806 q 892 638 892 707 l 892 168 q 842 49 892 99 q 722 0 793 0 l 239 0 q 120 49 169 0 q 71 168 71 99 l 71 638 q 120 756 71 707 q 239 806 169 806 m 722 692 l 239 692 q 201 676 217 692 q 185 638 185 660 l 185 168 q 201 130 185 146 q 239 114 217 114 l 722 114 q 760 130 744 114 q 776 168 776 146 l 776 638 q 760 676 776 660 q 722 692 744 692 z "},"p":{"ha":922,"x_min":75,"x_max":896,"o":"m 728 806 q 847 756 797 806 q 896 638 896 707 l 896 168 q 847 49 896 99 q 728 0 797 0 l 189 0 l 189 -319 l 75 -319 l 75 806 l 728 806 m 782 168 l 782 638 q 766 676 782 660 q 728 692 750 692 l 244 692 q 206 676 222 692 q 189 638 189 660 l 189 168 q 206 130 189 146 q 244 114 222 114 l 728 114 q 766 130 750 114 q 782 168 782 146 z "},"q":{"ha":922,"x_min":28,"x_max":849,"o":"m 28 638 q 77 756 28 707 q 197 806 126 806 l 849 806 l 849 -319 l 735 -319 l 735 0 l 197 0 q 77 49 126 0 q 28 168 28 99 l 28 638 m 143 638 l 143 168 q 159 130 143 146 q 197 114 175 114 l 681 114 q 719 130 703 114 q 735 168 735 146 l 735 638 q 719 676 735 660 q 681 692 703 692 l 197 692 q 159 676 175 692 q 143 638 143 660 z "},"r":{"ha":711,"x_min":72,"x_max":693,"o":"m 240 806 l 693 806 l 693 692 l 240 692 q 202 676 218 692 q 186 638 186 660 l 186 0 l 72 0 l 72 638 q 122 756 72 707 q 240 806 171 806 z "},"s":{"ha":953,"x_min":67,"x_max":888,"o":"m 888 638 l 888 626 l 772 626 l 772 638 q 756 676 772 660 q 718 692 740 692 l 235 692 q 197 676 213 692 q 181 638 181 660 l 181 514 q 197 476 181 492 q 235 460 213 460 l 718 460 q 838 410 789 460 q 888 292 888 361 l 888 168 q 838 49 888 99 q 718 0 789 0 l 235 0 q 116 49 165 0 q 67 168 67 99 l 67 179 l 181 179 l 181 168 q 197 130 181 146 q 235 114 213 114 l 718 114 q 756 130 740 114 q 772 168 772 146 l 772 292 q 756 330 772 314 q 718 346 740 346 l 235 346 q 116 395 165 346 q 67 514 67 444 l 67 638 q 116 756 67 707 q 235 806 165 806 l 718 806 q 838 756 789 806 q 888 638 888 707 z "},"t":{"ha":569,"x_min":74,"x_max":536,"o":"m 536 692 l 188 692 l 188 168 q 203 130 188 146 q 242 114 219 114 l 536 114 l 536 0 l 242 0 q 122 49 171 0 q 74 168 74 99 l 74 1069 l 188 1069 l 188 806 l 536 806 l 536 692 z "},"u":{"ha":965,"x_min":74,"x_max":894,"o":"m 781 806 l 894 806 l 894 168 q 845 49 894 99 q 725 0 796 0 l 242 0 q 123 49 172 0 q 74 168 74 99 l 74 806 l 188 806 l 188 168 q 203 130 188 146 q 242 114 219 114 l 725 114 q 764 130 747 114 q 781 168 781 146 l 781 806 z "},"v":{"ha":1097,"x_min":29,"x_max":1051,"o":"m 918 806 l 1051 806 l 606 0 l 474 0 l 29 806 l 163 806 l 540 111 l 918 806 z "},"w":{"ha":1488,"x_min":49,"x_max":1453,"o":"m 1329 806 l 1453 806 l 1149 0 l 1050 0 l 750 665 l 465 0 l 365 0 l 49 806 l 171 806 l 415 206 l 675 806 l 825 806 l 1101 207 l 1329 806 z "},"x":{"ha":961,"x_min":64,"x_max":888,"o":"m 738 806 l 886 806 l 550 410 l 888 0 l 738 0 l 475 322 l 214 0 l 64 0 l 400 410 l 64 806 l 214 806 l 475 500 l 738 806 z "},"y":{"ha":951,"x_min":58,"x_max":878,"o":"m 878 -150 q 829 -270 878 -221 q 710 -319 781 -319 l 207 -319 l 207 -204 l 710 -204 q 748 -188 732 -204 q 764 -150 764 -172 l 764 0 l 226 0 q 108 49 157 0 q 58 168 58 99 l 58 803 l 172 803 l 172 168 q 188 130 172 146 q 226 114 204 114 l 710 114 q 748 130 732 114 q 764 168 764 146 l 764 803 l 878 803 l 878 -150 z "},"z":{"ha":969,"x_min":75,"x_max":896,"o":"m 75 692 l 75 806 l 896 806 l 896 650 l 200 114 l 896 114 l 896 0 l 75 0 l 75 156 l 771 692 l 75 692 z "},"{":{"ha":401,"x_min":32,"x_max":306,"o":"m 211 404 l 211 168 q 227 130 211 146 q 265 114 243 114 l 306 114 l 306 0 l 265 0 q 147 49 196 0 q 97 168 97 99 l 97 394 q 65 415 89 400 q 32 435 42 429 l 32 568 l 97 603 l 97 831 q 147 951 97 901 q 265 1000 196 1000 l 306 1000 l 306 885 l 265 885 q 227 869 243 885 q 211 831 211 853 l 211 593 l 94 500 l 211 404 z "},"|":{"ha":297,"x_min":75,"x_max":189,"o":"m 75 -160 l 75 1169 l 189 1169 l 189 -160 l 75 -160 z "},"}":{"ha":401,"x_min":71,"x_max":343,"o":"m 165 168 l 165 403 l 282 499 l 165 590 l 165 831 q 149 869 165 853 q 111 885 133 885 l 71 885 l 71 1000 l 111 1000 q 230 951 181 1000 q 279 831 279 901 l 279 603 q 314 583 290 597 q 343 565 338 568 l 343 433 l 279 393 l 279 168 q 230 49 279 99 q 111 0 181 0 l 71 0 l 71 114 l 111 114 q 149 130 133 114 q 165 168 165 146 z "},"~":{"ha":561,"x_min":33,"x_max":504,"o":"m 410 393 l 413 393 q 504 415 457 393 l 504 358 q 413 340 456 340 q 271 390 364 340 q 119 439 178 439 q 33 428 65 439 l 33 479 q 119 492 71 492 q 268 445 175 492 q 410 393 361 399 z "},"¡":{"ha":292,"x_min":74,"x_max":188,"o":"m 188 1011 l 188 896 l 74 896 l 74 1011 l 188 1011 m 188 0 l 74 0 l 74 718 l 188 718 l 188 0 z "},"¢":{"ha":883,"x_min":46,"x_max":863,"o":"m 863 706 l 513 706 l 513 114 l 863 114 l 863 0 l 513 0 l 513 -160 l 399 -160 l 399 0 l 214 0 q 94 49 143 0 q 46 168 46 99 l 46 651 q 94 772 46 722 q 214 821 143 821 l 399 821 l 399 1008 l 513 1008 l 513 821 l 863 821 l 863 706 m 399 114 l 399 706 l 214 706 q 176 690 192 706 q 160 651 160 674 l 160 168 q 176 130 160 146 q 214 114 192 114 l 399 114 z "},"£":{"ha":1019,"x_min":54,"x_max":960,"o":"m 960 810 l 844 810 l 844 831 q 828 869 844 853 q 790 885 813 885 l 369 885 q 331 869 347 885 q 315 831 315 853 l 315 563 l 804 563 l 804 449 l 315 449 l 315 114 l 960 114 l 960 0 l 54 0 l 54 114 l 200 114 l 200 449 l 54 449 l 54 563 l 200 563 l 200 831 q 249 951 200 901 q 369 1000 299 1000 l 790 1000 q 910 951 861 1000 q 960 831 960 901 l 960 810 z "},"¨":{"ha":535,"x_min":75,"x_max":439,"o":"m 439 1325 l 439 1211 l 325 1211 l 325 1325 l 439 1325 m 190 1325 l 190 1211 l 75 1211 l 75 1325 l 190 1325 z "},"°":{"ha":610,"x_min":63,"x_max":532,"o":"m 232 1011 l 363 1011 q 483 962 433 1011 q 532 842 532 913 l 532 725 q 483 606 532 656 q 363 557 433 557 l 232 557 q 112 606 161 557 q 63 725 63 656 l 63 842 q 112 962 63 913 q 232 1011 161 1011 m 201 642 l 393 642 q 431 658 415 642 q 447 696 447 674 l 447 871 q 431 909 447 893 q 393 925 415 925 l 201 925 q 163 909 179 925 q 147 871 147 893 l 147 696 q 163 658 147 674 q 201 642 179 642 z "},"´":{"ha":296,"x_min":46,"x_max":204,"o":"m 46 1211 l 94 1404 l 204 1404 l 157 1211 l 46 1211 z "},"¶":{"ha":1157,"x_min":78,"x_max":1088,"o":"m 78 840 q 126 960 78 911 q 246 1010 175 1010 l 1088 1010 l 1088 0 l 974 0 l 974 376 l 782 376 l 782 0 l 668 0 l 668 376 l 246 376 q 126 426 175 376 q 78 544 78 475 l 78 840 m 782 894 l 782 490 l 974 490 l 974 894 l 782 894 m 192 840 l 192 544 q 208 506 192 522 q 246 490 224 490 l 668 490 l 668 894 l 246 894 q 208 878 224 894 q 192 840 192 863 z "},"¸":{"ha":296,"x_min":46,"x_max":204,"o":"m 46 -237 l 94 -44 l 204 -44 l 157 -237 l 46 -237 z "},"¿":{"ha":938,"x_min":26,"x_max":911,"o":"m 911 -11 l 194 0 q 75 49 124 0 q 26 168 26 99 l 26 438 q 75 558 26 508 q 194 607 124 607 l 574 607 q 612 623 596 607 q 628 661 628 639 l 628 728 l 742 728 l 742 661 q 693 541 742 590 q 574 492 644 492 l 194 492 q 156 476 172 492 q 140 438 140 460 l 140 168 q 156 130 140 146 q 194 114 172 114 l 900 114 q 903 42 900 74 q 908 0 906 11 l 911 -11 m 742 1011 l 742 896 l 628 896 l 628 1011 l 742 1011 z "},"À":{"ha":1161,"x_min":81,"x_max":1081,"o":"m 247 1000 l 914 1000 q 1032 951 983 1000 q 1081 833 1081 903 l 1081 0 l 968 0 l 968 365 l 193 365 l 193 0 l 81 0 l 81 833 q 129 951 81 903 q 247 1000 178 1000 m 193 478 l 968 478 l 968 833 q 952 872 968 856 q 914 888 936 888 l 247 888 q 209 872 225 888 q 193 833 193 856 l 193 478 m 590 1394 l 638 1201 l 526 1201 l 478 1394 l 590 1394 z "},"Á":{"ha":1161,"x_min":81,"x_max":1081,"o":"m 247 1000 l 914 1000 q 1032 951 983 1000 q 1081 833 1081 903 l 1081 0 l 968 0 l 968 365 l 193 365 l 193 0 l 81 0 l 81 833 q 129 951 81 903 q 247 1000 178 1000 m 193 478 l 968 478 l 968 833 q 952 872 968 856 q 914 888 936 888 l 247 888 q 209 872 225 888 q 193 833 193 856 l 193 478 m 478 1200 l 526 1393 l 636 1393 l 589 1200 l 478 1200 z "},"Â":{"ha":1161,"x_min":81,"x_max":1081,"o":"m 247 1000 l 914 1000 q 1032 951 983 1000 q 1081 833 1081 903 l 1081 0 l 968 0 l 968 365 l 193 365 l 193 0 l 81 0 l 81 833 q 129 951 81 903 q 247 1000 178 1000 m 193 478 l 968 478 l 968 833 q 952 872 968 856 q 914 888 936 888 l 247 888 q 209 872 225 888 q 193 833 193 856 l 193 478 m 468 1200 l 411 1200 l 510 1363 l 592 1363 l 690 1200 l 632 1200 l 551 1318 l 468 1200 z "},"Ã":{"ha":1161,"x_min":81,"x_max":1081,"o":"m 247 1000 l 914 1000 q 1032 951 983 1000 q 1081 833 1081 903 l 1081 0 l 968 0 l 968 365 l 193 365 l 193 0 l 81 0 l 81 833 q 129 951 81 903 q 247 1000 178 1000 m 193 478 l 968 478 l 968 833 q 952 872 968 856 q 914 888 936 888 l 247 888 q 209 872 225 888 q 193 833 193 856 l 193 478 m 713 1274 l 715 1274 q 807 1297 757 1274 l 807 1226 q 715 1207 754 1207 q 574 1257 667 1207 q 422 1307 481 1307 q 336 1296 368 1307 l 336 1361 q 422 1374 374 1374 q 571 1327 478 1374 q 713 1274 664 1281 z "},"Ä":{"ha":1161,"x_min":81,"x_max":1081,"o":"m 247 1000 l 914 1000 q 1032 951 983 1000 q 1081 833 1081 903 l 1081 0 l 968 0 l 968 365 l 193 365 l 193 0 l 81 0 l 81 833 q 129 951 81 903 q 247 1000 178 1000 m 193 478 l 968 478 l 968 833 q 952 872 968 856 q 914 888 936 888 l 247 888 q 209 872 225 888 q 193 833 193 856 l 193 478 m 751 1301 l 751 1188 l 638 1188 l 638 1301 l 751 1301 m 503 1301 l 503 1188 l 388 1188 l 388 1301 l 503 1301 z "},"Å":{"ha":1161,"x_min":81,"x_max":1081,"o":"m 247 1000 l 914 1000 q 1032 951 983 1000 q 1081 833 1081 903 l 1081 0 l 968 0 l 968 365 l 193 365 l 193 0 l 81 0 l 81 833 q 129 951 81 903 q 247 1000 178 1000 m 193 478 l 968 478 l 968 833 q 952 872 968 856 q 914 888 936 888 l 247 888 q 209 872 225 888 q 193 833 193 856 l 193 478 m 542 1363 l 619 1363 q 672 1341 650 1363 q 694 1289 694 1319 l 694 1214 q 672 1162 694 1183 q 619 1140 650 1140 l 542 1140 q 489 1162 511 1140 q 467 1214 467 1183 l 467 1289 q 489 1341 467 1319 q 542 1363 511 1363 m 535 1196 l 626 1196 q 639 1210 639 1196 l 639 1293 q 626 1307 639 1307 l 535 1307 q 522 1293 522 1307 l 522 1210 q 535 1196 522 1196 z "},"Æ":{"ha":1910,"x_min":75,"x_max":1875,"o":"m 1075 888 l 1075 557 l 1718 557 l 1718 443 l 1075 443 l 1075 113 l 1875 113 l 1875 0 l 963 0 l 963 365 l 188 365 l 188 0 l 75 0 l 75 833 q 124 951 75 903 q 242 1000 172 1000 l 1875 1000 l 1875 888 l 1075 888 m 963 478 l 963 833 q 947 872 963 856 q 908 888 931 888 l 242 888 q 203 872 219 888 q 188 833 188 856 l 188 478 l 963 478 z "},"Ç":{"ha":1142,"x_min":78,"x_max":1075,"o":"m 1075 888 l 244 888 q 206 872 222 888 q 190 833 190 856 l 190 167 q 206 128 190 144 q 244 113 222 113 l 1075 113 l 1075 0 l 626 0 l 579 -193 l 468 -193 l 517 0 l 244 0 q 126 49 175 0 q 78 167 78 97 l 78 833 q 126 951 78 903 q 244 1000 175 1000 l 1075 1000 l 1075 888 z "},"È":{"ha":1064,"x_min":81,"x_max":993,"o":"m 993 1000 l 993 888 l 193 888 l 193 557 l 836 557 l 836 443 l 193 443 l 193 113 l 993 113 l 993 0 l 81 0 l 81 1000 l 993 1000 m 542 1394 l 589 1201 l 478 1201 l 429 1394 l 542 1394 z "},"É":{"ha":1064,"x_min":81,"x_max":993,"o":"m 993 1000 l 993 888 l 193 888 l 193 557 l 836 557 l 836 443 l 193 443 l 193 113 l 993 113 l 993 0 l 81 0 l 81 1000 l 993 1000 m 429 1201 l 478 1394 l 588 1394 l 540 1201 l 429 1201 z "},"Ê":{"ha":1064,"x_min":81,"x_max":993,"o":"m 993 1000 l 993 888 l 193 888 l 193 557 l 836 557 l 836 443 l 193 443 l 193 113 l 993 113 l 993 0 l 81 0 l 81 1000 l 993 1000 m 419 1200 l 363 1200 l 461 1363 l 543 1363 l 642 1200 l 583 1200 l 503 1318 l 419 1200 z "},"Ë":{"ha":1064,"x_min":81,"x_max":993,"o":"m 993 1000 l 993 888 l 193 888 l 193 557 l 836 557 l 836 443 l 193 443 l 193 113 l 993 113 l 993 0 l 81 0 l 81 1000 l 993 1000 m 703 1315 l 703 1201 l 589 1201 l 589 1315 l 703 1315 m 454 1315 l 454 1201 l 339 1201 l 339 1315 l 454 1315 z "},"Ì":{"ha":306,"x_min":50,"x_max":210,"o":"m 79 0 l 79 1000 l 192 1000 l 192 0 l 79 0 m 163 1394 l 210 1201 l 99 1201 l 50 1394 l 163 1394 z "},"Í":{"ha":306,"x_min":50,"x_max":208,"o":"m 79 0 l 79 1000 l 192 1000 l 192 0 l 79 0 m 50 1201 l 99 1394 l 208 1394 l 161 1201 l 50 1201 z "},"Î":{"ha":306,"x_min":-17,"x_max":263,"o":"m 79 0 l 79 1000 l 192 1000 l 192 0 l 79 0 m 40 1200 l -17 1200 l 82 1363 l 164 1363 l 263 1200 l 204 1200 l 124 1318 l 40 1200 z "},"Ï":{"ha":306,"x_min":-40,"x_max":324,"o":"m 79 0 l 79 1000 l 192 1000 l 192 0 l 79 0 m 324 1315 l 324 1201 l 210 1201 l 210 1315 l 324 1315 m 75 1315 l 75 1201 l -40 1201 l -40 1315 l 75 1315 z "},"Ñ":{"ha":1156,"x_min":78,"x_max":1078,"o":"m 965 128 l 965 1000 l 1078 1000 l 1078 0 l 924 0 l 190 872 l 190 0 l 78 0 l 78 1000 l 232 1000 l 965 128 m 710 1274 l 713 1274 q 804 1297 754 1274 l 804 1226 q 713 1207 751 1207 q 571 1257 664 1207 q 419 1307 478 1307 q 333 1296 365 1307 l 333 1361 q 419 1374 371 1374 q 568 1327 475 1374 q 710 1274 661 1281 z "},"Ò":{"ha":1150,"x_min":75,"x_max":1075,"o":"m 242 1000 l 908 1000 q 1026 951 978 1000 q 1075 833 1075 903 l 1075 167 q 1026 49 1075 97 q 908 0 978 0 l 242 0 q 124 49 172 0 q 75 167 75 97 l 75 833 q 124 951 75 903 q 242 1000 172 1000 m 242 113 l 908 113 q 947 128 931 113 q 963 167 963 144 l 963 833 q 947 872 963 856 q 908 888 931 888 l 242 888 q 203 872 219 888 q 188 833 188 856 l 188 167 q 203 128 188 144 q 242 113 219 113 m 585 1394 l 632 1201 l 521 1201 l 472 1394 l 585 1394 z "},"Ó":{"ha":1150,"x_min":75,"x_max":1075,"o":"m 242 1000 l 908 1000 q 1026 951 978 1000 q 1075 833 1075 903 l 1075 167 q 1026 49 1075 97 q 908 0 978 0 l 242 0 q 124 49 172 0 q 75 167 75 97 l 75 833 q 124 951 75 903 q 242 1000 172 1000 m 242 113 l 908 113 q 947 128 931 113 q 963 167 963 144 l 963 833 q 947 872 963 856 q 908 888 931 888 l 242 888 q 203 872 219 888 q 188 833 188 856 l 188 167 q 203 128 188 144 q 242 113 219 113 m 472 1201 l 521 1394 l 631 1394 l 583 1201 l 472 1201 z "},"Ô":{"ha":1150,"x_min":75,"x_max":1075,"o":"m 242 1000 l 908 1000 q 1026 951 978 1000 q 1075 833 1075 903 l 1075 167 q 1026 49 1075 97 q 908 0 978 0 l 242 0 q 124 49 172 0 q 75 167 75 97 l 75 833 q 124 951 75 903 q 242 1000 172 1000 m 242 113 l 908 113 q 947 128 931 113 q 963 167 963 144 l 963 833 q 947 872 963 856 q 908 888 931 888 l 242 888 q 203 872 219 888 q 188 833 188 856 l 188 167 q 203 128 188 144 q 242 113 219 113 m 463 1200 l 406 1200 l 504 1363 l 586 1363 l 685 1200 l 626 1200 l 546 1318 l 463 1200 z "},"Õ":{"ha":1150,"x_min":75,"x_max":1075,"o":"m 242 1000 l 908 1000 q 1026 951 978 1000 q 1075 833 1075 903 l 1075 167 q 1026 49 1075 97 q 908 0 978 0 l 242 0 q 124 49 172 0 q 75 167 75 97 l 75 833 q 124 951 75 903 q 242 1000 172 1000 m 242 113 l 908 113 q 947 128 931 113 q 963 167 963 144 l 963 833 q 947 872 963 856 q 908 888 931 888 l 242 888 q 203 872 219 888 q 188 833 188 856 l 188 167 q 203 128 188 144 q 242 113 219 113 m 707 1274 l 710 1274 q 801 1297 751 1274 l 801 1226 q 710 1207 749 1207 q 568 1257 661 1207 q 417 1307 475 1307 q 331 1296 363 1307 l 331 1361 q 417 1374 368 1374 q 565 1327 472 1374 q 707 1274 658 1281 z "},"Ö":{"ha":1150,"x_min":75,"x_max":1075,"o":"m 242 1000 l 908 1000 q 1026 951 978 1000 q 1075 833 1075 903 l 1075 167 q 1026 49 1075 97 q 908 0 978 0 l 242 0 q 124 49 172 0 q 75 167 75 97 l 75 833 q 124 951 75 903 q 242 1000 172 1000 m 242 113 l 908 113 q 947 128 931 113 q 963 167 963 144 l 963 833 q 947 872 963 856 q 908 888 931 888 l 242 888 q 203 872 219 888 q 188 833 188 856 l 188 167 q 203 128 188 144 q 242 113 219 113 m 746 1315 l 746 1201 l 632 1201 l 632 1315 l 746 1315 m 497 1315 l 497 1201 l 382 1201 l 382 1315 l 497 1315 z "},"×":{"ha":758,"x_min":74,"x_max":664,"o":"m 369 503 l 517 703 l 664 703 l 444 418 l 664 132 l 517 132 l 369 332 l 224 132 l 75 132 l 294 418 l 74 703 l 224 703 l 369 503 z "},"Ù":{"ha":1150,"x_min":75,"x_max":1075,"o":"m 963 167 l 963 1000 l 1075 1000 l 1075 167 q 1026 49 1075 97 q 908 0 978 0 l 242 0 q 124 49 172 0 q 75 167 75 97 l 75 1000 l 188 1000 l 188 167 q 203 128 188 144 q 242 113 219 113 l 908 113 q 947 128 931 113 q 963 167 963 144 m 585 1394 l 632 1201 l 521 1201 l 472 1394 l 585 1394 z "},"Ú":{"ha":1150,"x_min":75,"x_max":1075,"o":"m 963 167 l 963 1000 l 1075 1000 l 1075 167 q 1026 49 1075 97 q 908 0 978 0 l 242 0 q 124 49 172 0 q 75 167 75 97 l 75 1000 l 188 1000 l 188 167 q 203 128 188 144 q 242 113 219 113 l 908 113 q 947 128 931 113 q 963 167 963 144 m 472 1201 l 521 1394 l 631 1394 l 583 1201 l 472 1201 z "},"Û":{"ha":1150,"x_min":75,"x_max":1075,"o":"m 963 167 l 963 1000 l 1075 1000 l 1075 167 q 1026 49 1075 97 q 908 0 978 0 l 242 0 q 124 49 172 0 q 75 167 75 97 l 75 1000 l 188 1000 l 188 167 q 203 128 188 144 q 242 113 219 113 l 908 113 q 947 128 931 113 q 963 167 963 144 m 463 1200 l 406 1200 l 504 1363 l 586 1363 l 685 1200 l 626 1200 l 546 1318 l 463 1200 z "},"Ü":{"ha":1150,"x_min":75,"x_max":1075,"o":"m 963 167 l 963 1000 l 1075 1000 l 1075 167 q 1026 49 1075 97 q 908 0 978 0 l 242 0 q 124 49 172 0 q 75 167 75 97 l 75 1000 l 188 1000 l 188 167 q 203 128 188 144 q 242 113 219 113 l 908 113 q 947 128 931 113 q 963 167 963 144 m 746 1315 l 746 1201 l 632 1201 l 632 1315 l 746 1315 m 497 1315 l 497 1201 l 382 1201 l 382 1315 l 497 1315 z "},"Ý":{"ha":1119,"x_min":24,"x_max":1056,"o":"m 924 1000 l 1056 1000 l 596 376 l 596 0 l 483 0 l 483 376 l 24 1000 l 153 1000 l 540 511 l 924 1000 m 457 1201 l 506 1394 l 615 1394 l 568 1201 l 457 1201 z "},"ß":{"ha":1157,"x_min":79,"x_max":1089,"o":"m 1089 869 l 1089 632 q 1047 519 1089 576 q 1089 408 1089 465 l 1089 168 q 1040 49 1089 99 q 921 0 990 0 l 394 0 l 394 114 l 921 114 q 959 130 943 114 q 975 168 975 146 l 975 408 q 959 447 975 431 q 921 463 943 463 l 394 463 l 394 561 l 921 561 q 959 577 943 561 q 975 615 975 593 l 975 840 q 959 878 975 863 q 921 894 943 894 l 247 894 q 209 878 225 894 q 193 840 193 863 l 193 0 l 79 0 l 79 842 q 128 962 79 913 q 247 1011 176 1011 l 921 1011 q 1024 969 976 1011 q 1089 869 1072 926 z "},"à":{"ha":1007,"x_min":72,"x_max":893,"o":"m 724 806 q 844 756 794 806 q 893 638 893 707 l 893 0 l 240 0 q 122 49 171 0 q 72 168 72 99 l 72 460 l 778 460 l 778 638 q 762 676 778 660 q 724 692 746 692 l 72 692 l 72 806 l 724 806 m 778 114 l 778 346 l 186 346 l 186 168 q 202 130 186 146 q 240 114 218 114 l 778 114 m 513 1253 l 560 1060 l 449 1060 l 400 1253 l 513 1253 z "},"á":{"ha":1007,"x_min":72,"x_max":893,"o":"m 724 806 q 844 756 794 806 q 893 638 893 707 l 893 0 l 240 0 q 122 49 171 0 q 72 168 72 99 l 72 460 l 778 460 l 778 638 q 762 676 778 660 q 724 692 746 692 l 72 692 l 72 806 l 724 806 m 778 114 l 778 346 l 186 346 l 186 168 q 202 130 186 146 q 240 114 218 114 l 778 114 m 400 1060 l 449 1253 l 558 1253 l 511 1060 l 400 1060 z "},"â":{"ha":1007,"x_min":72,"x_max":893,"o":"m 724 806 q 844 756 794 806 q 893 638 893 707 l 893 0 l 240 0 q 122 49 171 0 q 72 168 72 99 l 72 460 l 778 460 l 778 638 q 762 676 778 660 q 724 692 746 692 l 72 692 l 72 806 l 724 806 m 778 114 l 778 346 l 186 346 l 186 168 q 202 130 186 146 q 240 114 218 114 l 778 114 m 390 1060 l 333 1060 l 432 1222 l 514 1222 l 613 1060 l 554 1060 l 474 1178 l 390 1060 z "},"ã":{"ha":1007,"x_min":72,"x_max":893,"o":"m 724 806 q 844 756 794 806 q 893 638 893 707 l 893 0 l 240 0 q 122 49 171 0 q 72 168 72 99 l 72 460 l 778 460 l 778 638 q 762 676 778 660 q 724 692 746 692 l 72 692 l 72 806 l 724 806 m 778 114 l 778 346 l 186 346 l 186 168 q 202 130 186 146 q 240 114 218 114 l 778 114 m 635 1131 l 638 1131 q 729 1154 679 1131 l 729 1083 q 638 1064 676 1064 q 496 1114 589 1064 q 344 1164 403 1164 q 258 1153 290 1164 l 258 1218 q 344 1231 296 1231 q 493 1184 400 1231 q 635 1131 586 1138 z "},"ä":{"ha":1007,"x_min":72,"x_max":893,"o":"m 724 806 q 844 756 794 806 q 893 638 893 707 l 893 0 l 240 0 q 122 49 171 0 q 72 168 72 99 l 72 460 l 778 460 l 778 638 q 762 676 778 660 q 724 692 746 692 l 72 692 l 72 806 l 724 806 m 778 114 l 778 346 l 186 346 l 186 168 q 202 130 186 146 q 240 114 218 114 l 778 114 m 674 1174 l 674 1060 l 560 1060 l 560 1174 l 674 1174 m 425 1174 l 425 1060 l 310 1060 l 310 1174 l 425 1174 z "},"å":{"ha":1007,"x_min":72,"x_max":893,"o":"m 724 806 q 844 756 794 806 q 893 638 893 707 l 893 0 l 240 0 q 122 49 171 0 q 72 168 72 99 l 72 460 l 778 460 l 778 638 q 762 676 778 660 q 724 692 746 692 l 72 692 l 72 806 l 724 806 m 778 114 l 778 346 l 186 346 l 186 168 q 202 130 186 146 q 240 114 218 114 l 778 114 m 464 1219 l 542 1219 q 594 1198 572 1219 q 617 1146 617 1176 l 617 1071 q 594 1019 617 1040 q 542 997 572 997 l 464 997 q 411 1019 433 997 q 389 1071 389 1040 l 389 1146 q 411 1198 389 1176 q 464 1219 433 1219 m 457 1053 l 549 1053 q 561 1067 561 1053 l 561 1150 q 549 1164 561 1164 l 457 1164 q 444 1150 444 1164 l 444 1067 q 457 1053 444 1053 z "},"æ":{"ha":1636,"x_min":74,"x_max":1599,"o":"m 1431 806 q 1550 756 1501 806 q 1599 638 1599 707 l 1599 346 l 893 346 l 893 163 q 910 128 894 142 q 947 114 926 114 l 1599 114 l 1599 0 l 242 0 q 122 49 171 0 q 74 168 74 99 l 74 460 l 779 460 l 779 638 q 763 676 779 660 q 725 692 747 692 l 74 692 l 74 806 l 1431 806 m 779 114 l 779 346 l 188 346 l 188 168 q 203 130 188 146 q 242 114 219 114 l 779 114 m 893 460 l 1485 460 l 1485 638 q 1469 676 1485 660 q 1431 692 1453 692 l 947 692 q 909 676 925 692 q 893 638 893 660 l 893 460 z "},"ç":{"ha":963,"x_min":71,"x_max":892,"o":"m 239 114 l 892 114 l 892 0 l 536 0 l 489 -193 l 378 -193 l 426 0 l 239 0 q 120 49 169 0 q 71 168 71 99 l 71 638 q 120 756 71 707 q 239 806 169 806 l 889 806 l 889 692 l 239 692 q 201 676 217 692 q 185 638 185 660 l 185 168 q 201 130 185 146 q 239 114 217 114 z "},"è":{"ha":886,"x_min":71,"x_max":892,"o":"m 722 806 q 842 756 793 806 q 892 638 892 707 l 892 346 l 185 346 l 185 168 q 201 130 185 146 q 239 114 217 114 l 892 114 l 892 0 l 239 0 q 120 49 169 0 q 71 168 71 99 l 71 638 q 120 756 71 707 q 239 806 169 806 l 722 806 m 185 460 l 776 460 l 776 638 q 760 676 776 660 q 722 692 744 692 l 239 692 q 201 676 217 692 q 185 638 185 660 l 185 460 m 453 1253 l 500 1060 l 389 1060 l 340 1253 l 453 1253 z "},"é":{"ha":886,"x_min":71,"x_max":892,"o":"m 722 806 q 842 756 793 806 q 892 638 892 707 l 892 346 l 185 346 l 185 168 q 201 130 185 146 q 239 114 217 114 l 892 114 l 892 0 l 239 0 q 120 49 169 0 q 71 168 71 99 l 71 638 q 120 756 71 707 q 239 806 169 806 l 722 806 m 185 460 l 776 460 l 776 638 q 760 676 776 660 q 722 692 744 692 l 239 692 q 201 676 217 692 q 185 638 185 660 l 185 460 m 340 1061 l 389 1254 l 499 1254 l 451 1061 l 340 1061 z "},"ê":{"ha":886,"x_min":71,"x_max":892,"o":"m 722 806 q 842 756 793 806 q 892 638 892 707 l 892 346 l 185 346 l 185 168 q 201 130 185 146 q 239 114 217 114 l 892 114 l 892 0 l 239 0 q 120 49 169 0 q 71 168 71 99 l 71 638 q 120 756 71 707 q 239 806 169 806 l 722 806 m 185 460 l 776 460 l 776 638 q 760 676 776 660 q 722 692 744 692 l 239 692 q 201 676 217 692 q 185 638 185 660 l 185 460 m 331 1060 l 274 1060 l 372 1222 l 454 1222 l 553 1060 l 494 1060 l 414 1178 l 331 1060 z "},"ë":{"ha":886,"x_min":71,"x_max":892,"o":"m 722 806 q 842 756 793 806 q 892 638 892 707 l 892 346 l 185 346 l 185 168 q 201 130 185 146 q 239 114 217 114 l 892 114 l 892 0 l 239 0 q 120 49 169 0 q 71 168 71 99 l 71 638 q 120 756 71 707 q 239 806 169 806 l 722 806 m 185 460 l 776 460 l 776 638 q 760 676 776 660 q 722 692 744 692 l 239 692 q 201 676 217 692 q 185 638 185 660 l 185 460 m 614 1174 l 614 1060 l 500 1060 l 500 1174 l 614 1174 m 365 1174 l 365 1060 l 250 1060 l 250 1174 l 365 1174 z "},"ì":{"ha":297,"x_min":22,"x_max":192,"o":"m 78 0 l 78 806 l 192 806 l 192 0 l 78 0 m 135 1254 l 182 1061 l 71 1061 l 22 1254 l 135 1254 z "},"í":{"ha":297,"x_min":68,"x_max":226,"o":"m 71 0 l 71 806 l 185 806 l 185 0 l 71 0 m 68 1060 l 117 1253 l 226 1253 l 179 1060 l 68 1060 z "},"î":{"ha":297,"x_min":-21,"x_max":258,"o":"m 71 0 l 71 806 l 185 806 l 185 0 l 71 0 m 36 1060 l -21 1060 l 78 1222 l 160 1222 l 258 1060 l 200 1060 l 119 1178 l 36 1060 z "},"ï":{"ha":297,"x_min":-44,"x_max":319,"o":"m 76 0 l 76 806 l 190 806 l 190 0 l 76 0 m 319 1176 l 319 1063 l 206 1063 l 206 1176 l 319 1176 m 71 1176 l 71 1063 l -44 1063 l -44 1176 l 71 1176 z "},"ñ":{"ha":983,"x_min":75,"x_max":896,"o":"m 728 806 q 847 756 797 806 q 896 638 896 707 l 896 0 l 782 0 l 782 638 q 766 676 782 660 q 728 692 750 692 l 244 692 q 206 676 222 692 q 189 638 189 660 l 189 0 l 75 0 l 75 806 l 728 806 m 624 1129 l 626 1129 q 718 1153 668 1129 l 718 1082 q 626 1063 665 1063 q 485 1113 578 1063 q 333 1163 392 1163 q 247 1151 279 1163 l 247 1217 q 333 1229 285 1229 q 482 1183 389 1229 q 624 1129 575 1136 z "},"ò":{"ha":961,"x_min":71,"x_max":892,"o":"m 239 806 l 722 806 q 842 756 793 806 q 892 638 892 707 l 892 168 q 842 49 892 99 q 722 0 793 0 l 239 0 q 120 49 169 0 q 71 168 71 99 l 71 638 q 120 756 71 707 q 239 806 169 806 m 722 692 l 239 692 q 201 676 217 692 q 185 638 185 660 l 185 168 q 201 130 185 146 q 239 114 217 114 l 722 114 q 760 130 744 114 q 776 168 776 146 l 776 638 q 760 676 776 660 q 722 692 744 692 m 490 1254 l 538 1061 l 426 1061 l 378 1254 l 490 1254 z "},"ó":{"ha":961,"x_min":71,"x_max":892,"o":"m 239 806 l 722 806 q 842 756 793 806 q 892 638 892 707 l 892 168 q 842 49 892 99 q 722 0 793 0 l 239 0 q 120 49 169 0 q 71 168 71 99 l 71 638 q 120 756 71 707 q 239 806 169 806 m 722 692 l 239 692 q 201 676 217 692 q 185 638 185 660 l 185 168 q 201 130 185 146 q 239 114 217 114 l 722 114 q 760 130 744 114 q 776 168 776 146 l 776 638 q 760 676 776 660 q 722 692 744 692 m 378 1061 l 426 1254 l 536 1254 l 489 1061 l 378 1061 z "},"ô":{"ha":961,"x_min":71,"x_max":892,"o":"m 239 806 l 722 806 q 842 756 793 806 q 892 638 892 707 l 892 168 q 842 49 892 99 q 722 0 793 0 l 239 0 q 120 49 169 0 q 71 168 71 99 l 71 638 q 120 756 71 707 q 239 806 169 806 m 722 692 l 239 692 q 201 676 217 692 q 185 638 185 660 l 185 168 q 201 130 185 146 q 239 114 217 114 l 722 114 q 760 130 744 114 q 776 168 776 146 l 776 638 q 760 676 776 660 q 722 692 744 692 m 368 1060 l 311 1060 l 410 1222 l 492 1222 l 590 1060 l 532 1060 l 451 1178 l 368 1060 z "},"õ":{"ha":961,"x_min":71,"x_max":892,"o":"m 239 806 l 722 806 q 842 756 793 806 q 892 638 892 707 l 892 168 q 842 49 892 99 q 722 0 793 0 l 239 0 q 120 49 169 0 q 71 168 71 99 l 71 638 q 120 756 71 707 q 239 806 169 806 m 722 692 l 239 692 q 201 676 217 692 q 185 638 185 660 l 185 168 q 201 130 185 146 q 239 114 217 114 l 722 114 q 760 130 744 114 q 776 168 776 146 l 776 638 q 760 676 776 660 q 722 692 744 692 m 613 1129 l 615 1129 q 707 1153 657 1129 l 707 1082 q 615 1063 654 1063 q 474 1113 567 1063 q 322 1163 381 1163 q 236 1151 268 1163 l 236 1217 q 322 1229 274 1229 q 471 1183 378 1229 q 613 1129 564 1136 z "},"ö":{"ha":961,"x_min":71,"x_max":892,"o":"m 239 806 l 722 806 q 842 756 793 806 q 892 638 892 707 l 892 168 q 842 49 892 99 q 722 0 793 0 l 239 0 q 120 49 169 0 q 71 168 71 99 l 71 638 q 120 756 71 707 q 239 806 169 806 m 722 692 l 239 692 q 201 676 217 692 q 185 638 185 660 l 185 168 q 201 130 185 146 q 239 114 217 114 l 722 114 q 760 130 744 114 q 776 168 776 146 l 776 638 q 760 676 776 660 q 722 692 744 692 m 651 1176 l 651 1063 l 538 1063 l 538 1176 l 651 1176 m 403 1176 l 403 1063 l 288 1063 l 288 1176 l 403 1176 z "},"÷":{"ha":706,"x_min":25,"x_max":683,"o":"m 683 468 l 683 354 l 25 354 l 25 468 l 683 468 m 299 115 l 413 115 l 413 1 l 299 1 l 299 115 m 413 804 l 413 690 l 299 690 l 299 804 l 413 804 z "},"ù":{"ha":965,"x_min":74,"x_max":894,"o":"m 781 806 l 894 806 l 894 168 q 845 49 894 99 q 725 0 796 0 l 242 0 q 123 49 172 0 q 74 168 74 99 l 74 806 l 188 806 l 188 168 q 203 130 188 146 q 242 114 219 114 l 725 114 q 764 130 747 114 q 781 168 781 146 l 781 806 m 492 1254 l 539 1061 l 428 1061 l 379 1254 l 492 1254 z "},"ú":{"ha":965,"x_min":74,"x_max":894,"o":"m 781 806 l 894 806 l 894 168 q 845 49 894 99 q 725 0 796 0 l 242 0 q 123 49 172 0 q 74 168 74 99 l 74 806 l 188 806 l 188 168 q 203 130 188 146 q 242 114 219 114 l 725 114 q 764 130 747 114 q 781 168 781 146 l 781 806 m 379 1061 l 428 1254 l 538 1254 l 490 1061 l 379 1061 z "},"û":{"ha":965,"x_min":74,"x_max":894,"o":"m 781 806 l 894 806 l 894 168 q 845 49 894 99 q 725 0 796 0 l 242 0 q 123 49 172 0 q 74 168 74 99 l 74 806 l 188 806 l 188 168 q 203 130 188 146 q 242 114 219 114 l 725 114 q 764 130 747 114 q 781 168 781 146 l 781 806 m 369 1061 l 313 1061 l 411 1224 l 493 1224 l 592 1061 l 533 1061 l 453 1179 l 369 1061 z "},"ü":{"ha":965,"x_min":74,"x_max":894,"o":"m 781 806 l 894 806 l 894 168 q 845 49 894 99 q 725 0 796 0 l 242 0 q 123 49 172 0 q 74 168 74 99 l 74 806 l 188 806 l 188 168 q 203 130 188 146 q 242 114 219 114 l 725 114 q 764 130 747 114 q 781 168 781 146 l 781 806 m 653 1174 l 653 1060 l 539 1060 l 539 1174 l 653 1174 m 404 1174 l 404 1060 l 289 1060 l 289 1174 l 404 1174 z "},"ý":{"ha":956,"x_min":58,"x_max":878,"o":"m 878 -150 q 829 -270 878 -221 q 710 -319 781 -319 l 207 -319 l 207 -204 l 710 -204 q 748 -188 732 -204 q 764 -150 764 -172 l 764 0 l 226 0 q 108 49 157 0 q 58 168 58 99 l 58 803 l 172 803 l 172 168 q 188 130 172 146 q 226 114 204 114 l 710 114 q 748 130 732 114 q 764 168 764 146 l 764 803 l 878 803 l 878 -150 m 375 1061 l 424 1254 l 533 1254 l 486 1061 l 375 1061 z "},"ÿ":{"ha":956,"x_min":58,"x_max":878,"o":"m 878 -150 q 829 -270 878 -221 q 710 -319 781 -319 l 207 -319 l 207 -204 l 710 -204 q 748 -188 732 -204 q 764 -150 764 -172 l 764 0 l 226 0 q 108 49 157 0 q 58 168 58 99 l 58 803 l 172 803 l 172 168 q 188 130 172 146 q 226 114 204 114 l 710 114 q 748 130 732 114 q 764 168 764 146 l 764 803 l 878 803 l 878 -150 m 649 1176 l 649 1063 l 535 1063 l 535 1176 l 649 1176 m 400 1176 l 400 1063 l 285 1063 l 285 1176 l 400 1176 z "},"ı":{"ha":297,"x_min":72,"x_max":186,"o":"m 72 0 l 72 806 l 186 806 l 186 0 l 72 0 z "},"Œ":{"ha":1908,"x_min":74,"x_max":1874,"o":"m 1074 888 l 1074 557 l 1717 557 l 1717 443 l 1074 443 l 1074 113 l 1874 113 l 1874 0 l 240 0 q 122 49 171 0 q 74 167 74 97 l 74 833 q 122 951 74 903 q 240 1000 171 1000 l 1874 1000 l 1874 888 l 1074 888 m 907 113 q 945 128 929 113 q 961 167 961 144 l 961 833 q 945 872 961 856 q 907 888 929 888 l 240 888 q 202 872 218 888 q 186 833 186 856 l 186 167 q 202 128 186 144 q 240 113 218 113 l 907 113 z "},"œ":{"ha":1635,"x_min":72,"x_max":1597,"o":"m 1597 346 l 892 346 l 892 168 q 908 130 892 146 q 946 114 924 114 l 1597 114 l 1597 0 l 240 0 q 121 49 169 0 q 72 168 72 99 l 72 638 q 121 756 72 707 q 240 806 169 806 l 1429 806 q 1549 756 1500 806 q 1597 638 1597 707 l 1597 346 m 946 692 q 908 676 924 692 q 892 638 892 660 l 892 460 l 1483 460 l 1483 638 q 1467 676 1483 660 q 1429 692 1451 692 l 946 692 m 724 114 q 762 130 746 114 q 778 168 778 146 l 778 638 q 762 676 778 660 q 724 692 746 692 l 240 692 q 202 676 218 692 q 186 638 186 660 l 186 168 q 202 130 186 146 q 240 114 218 114 l 724 114 z "},"Š":{"ha":1142,"x_min":71,"x_max":1071,"o":"m 1071 833 l 1071 794 l 958 794 l 958 833 q 942 872 958 856 q 904 888 926 888 l 238 888 q 199 872 215 888 q 183 833 183 856 l 183 610 q 199 572 183 588 q 238 557 215 557 l 904 557 q 1022 508 974 557 q 1071 390 1071 460 l 1071 167 q 1022 49 1071 97 q 904 0 974 0 l 238 0 q 119 49 168 0 q 71 167 71 97 l 71 206 l 183 206 l 183 167 q 199 128 183 144 q 238 113 215 113 l 904 113 q 942 128 926 113 q 958 167 958 144 l 958 390 q 942 428 958 413 q 904 443 926 443 l 238 443 q 119 492 168 443 q 71 610 71 540 l 71 833 q 119 951 71 903 q 238 1000 168 1000 l 904 1000 q 1022 951 974 1000 q 1071 833 1071 903 m 401 1363 l 460 1363 l 543 1244 l 624 1363 l 681 1363 l 583 1200 l 501 1200 l 401 1363 z "},"š":{"ha":954,"x_min":67,"x_max":888,"o":"m 888 638 l 888 626 l 772 626 l 772 638 q 756 676 772 660 q 718 692 740 692 l 235 692 q 197 676 213 692 q 181 638 181 660 l 181 514 q 197 476 181 492 q 235 460 213 460 l 718 460 q 838 410 789 460 q 888 292 888 361 l 888 168 q 838 49 888 99 q 718 0 789 0 l 235 0 q 116 49 165 0 q 67 168 67 99 l 67 179 l 181 179 l 181 168 q 197 130 181 146 q 235 114 213 114 l 718 114 q 756 130 740 114 q 772 168 772 146 l 772 292 q 756 330 772 314 q 718 346 740 346 l 235 346 q 116 395 165 346 q 67 514 67 444 l 67 638 q 116 756 67 707 q 235 806 165 806 l 718 806 q 838 756 789 806 q 888 638 888 707 m 307 1222 l 365 1222 l 449 1104 l 529 1222 l 586 1222 l 489 1060 l 407 1060 l 307 1222 z "},"Ÿ":{"ha":1119,"x_min":24,"x_max":1056,"o":"m 924 1000 l 1056 1000 l 596 376 l 596 0 l 483 0 l 483 376 l 24 1000 l 153 1000 l 540 511 l 924 1000 m 731 1315 l 731 1201 l 617 1201 l 617 1315 l 731 1315 m 482 1315 l 482 1201 l 367 1201 l 367 1315 l 482 1315 z "},"Ž":{"ha":1140,"x_min":71,"x_max":1071,"o":"m 71 888 l 71 1000 l 1071 1000 l 1071 846 l 199 113 l 1071 113 l 1071 0 l 71 0 l 71 154 l 943 888 l 71 888 m 400 1363 l 458 1363 l 542 1244 l 622 1363 l 679 1363 l 582 1200 l 500 1200 l 400 1363 z "},"ž":{"ha":969,"x_min":75,"x_max":896,"o":"m 75 692 l 75 806 l 896 806 l 896 650 l 200 114 l 896 114 l 896 0 l 75 0 l 75 156 l 771 692 l 75 692 m 315 1226 l 374 1226 l 457 1108 l 538 1226 l 594 1226 l 497 1064 l 415 1064 l 315 1226 z "},"ˆ":{"ha":417,"x_min":39,"x_max":318,"o":"m 96 1210 l 39 1210 l 138 1372 l 219 1372 l 318 1210 l 260 1210 l 179 1328 l 96 1210 z "},"ˇ":{"ha":413,"x_min":38,"x_max":317,"o":"m 38 1372 l 96 1372 l 179 1254 l 260 1372 l 317 1372 l 219 1210 l 138 1210 l 38 1372 z "},"˘":{"ha":399,"x_min":56,"x_max":313,"o":"m 269 1304 l 313 1304 q 288 1239 311 1267 q 222 1211 265 1211 l 146 1211 q 81 1239 104 1211 q 56 1304 57 1267 l 100 1304 q 129 1257 100 1257 l 240 1257 q 269 1296 269 1257 l 269 1304 z "},"˙":{"ha":324,"x_min":63,"x_max":229,"o":"m 119 1374 l 172 1374 q 213 1358 196 1374 q 229 1318 229 1342 l 229 1268 q 213 1228 229 1244 q 172 1213 196 1213 l 119 1213 q 79 1228 96 1213 q 63 1268 63 1244 l 63 1318 q 79 1358 63 1342 q 119 1374 96 1374 z "},"˚":{"ha":324,"x_min":49,"x_max":276,"o":"m 124 1372 l 201 1372 q 254 1351 232 1372 q 276 1299 276 1329 l 276 1224 q 254 1172 276 1193 q 201 1150 232 1150 l 124 1150 q 71 1172 93 1150 q 49 1224 49 1193 l 49 1299 q 71 1351 49 1329 q 124 1372 93 1372 m 117 1206 l 208 1206 q 221 1219 221 1206 l 221 1303 q 208 1317 221 1317 l 117 1317 q 104 1303 104 1317 l 104 1219 q 117 1206 104 1206 z "},"˜":{"ha":560,"x_min":32,"x_max":503,"o":"m 408 1283 l 411 1283 q 503 1307 453 1283 l 503 1236 q 411 1217 450 1217 q 269 1267 363 1217 q 118 1317 176 1317 q 32 1306 64 1317 l 32 1371 q 118 1383 69 1383 q 267 1337 174 1383 q 408 1283 360 1290 z "},"–":{"ha":983,"x_min":75,"x_max":910,"o":"m 910 467 l 910 353 l 75 353 l 75 467 l 910 467 z "},"—":{"ha":1142,"x_min":75,"x_max":1076,"o":"m 1076 467 l 1076 353 l 75 353 l 75 467 l 1076 467 z "},"‘":{"ha":233,"x_min":46,"x_max":161,"o":"m 161 699 l 46 699 l 46 835 q 78 935 46 890 q 161 994 110 979 l 161 699 z "},"’":{"ha":231,"x_min":75,"x_max":189,"o":"m 75 1001 l 189 1001 l 189 865 q 157 765 189 810 q 75 706 125 721 l 75 1001 z "},"“":{"ha":504,"x_min":65,"x_max":431,"o":"m 181 697 l 65 697 l 65 833 q 97 933 65 889 q 181 993 129 978 l 181 697 m 431 697 l 317 697 l 317 833 q 348 933 317 889 q 431 993 379 978 l 431 697 z "},"”":{"ha":504,"x_min":75,"x_max":440,"o":"m 326 1001 l 440 1001 l 440 865 q 408 765 440 810 q 326 706 376 721 l 326 1001 m 75 1001 l 190 1001 l 190 865 q 158 765 190 810 q 75 706 126 721 l 75 1001 z "},"•":{"ha":515,"x_min":200,"x_max":314,"o":"m 239 560 l 274 560 q 314 519 314 560 l 314 490 q 274 451 314 451 l 239 451 q 200 490 200 451 l 200 519 q 239 560 200 560 z "},"…":{"ha":797,"x_min":75,"x_max":714,"o":"m 189 114 l 189 0 l 75 0 l 75 114 l 189 114 m 714 114 l 714 0 l 599 0 l 599 114 l 714 114 m 451 114 l 451 0 l 338 0 l 338 114 l 451 114 z "},"€":{"ha":1110,"x_min":49,"x_max":1057,"o":"m 364 114 l 1057 114 l 1057 0 l 364 0 q 244 49 293 0 q 194 168 194 99 l 194 319 l 49 319 l 49 433 l 194 433 l 194 576 l 49 576 l 49 692 l 194 692 l 194 832 q 244 952 194 903 q 364 1001 293 1001 l 1057 1001 l 1057 886 l 364 886 q 326 870 342 886 q 310 832 310 854 l 310 692 l 899 692 l 899 576 l 310 576 l 310 433 l 899 433 l 899 319 l 310 319 l 310 168 q 326 130 310 146 q 364 114 342 114 z "},"−":{"ha":718,"x_min":82,"x_max":624,"o":"m 624 468 l 624 354 l 82 354 l 82 468 l 624 468 z "},"":{"ha":0,"x_min":0,"x_max":0,"o":""},"":{"ha":1071,"x_min":64,"x_max":1074,"o":"m 64 -15 l 69 0 l 75 0 l 64 -15 m 69 1001 l 1074 1001 l 225 0 l 75 0 l 829 886 l 69 886 l 69 1001 z "},"":{"ha":1089,"x_min":17,"x_max":1028,"o":"m 186 999 l 860 999 q 978 949 929 999 q 1028 829 1028 900 l 1028 0 l 914 0 l 914 367 q 898 405 914 389 q 860 421 882 421 l 186 421 q 66 470 115 421 q 17 589 17 519 l 17 829 q 66 949 17 900 q 186 999 115 999 m 914 535 l 914 829 q 898 867 914 851 q 860 883 882 883 l 186 883 q 148 867 164 883 q 132 829 132 851 l 132 589 q 148 551 132 567 q 186 535 164 535 l 914 535 z "},"":{"ha":1132,"x_min":68,"x_max":1076,"o":"m 1076 678 l 929 601 l 183 222 l 183 114 l 1076 114 l 1076 0 l 235 0 q 130 38 176 0 q 69 132 83 76 q 69 213 69 158 q 68 293 68 267 l 963 747 l 963 886 l 238 886 q 199 870 215 886 q 183 832 183 854 l 183 774 l 68 774 l 68 832 q 117 952 68 903 q 238 1001 167 1001 l 911 1001 q 1013 959 967 1001 q 1076 860 1060 917 l 1076 678 z "},"":{"ha":926,"x_min":38,"x_max":899,"o":"m 203 1000 l 731 1000 q 849 951 800 1000 q 899 831 899 901 l 899 561 q 849 442 899 492 q 731 393 800 393 l 453 393 q 415 377 431 393 q 399 339 399 361 l 399 210 l 283 210 l 283 339 q 333 458 283 410 q 453 507 382 507 l 731 507 q 769 523 753 507 q 785 561 785 539 l 785 831 q 769 869 785 853 q 731 885 753 885 l 151 885 l 151 726 l 38 726 l 38 860 q 99 958 53 917 q 203 1000 146 1000 m 399 0 l 283 0 l 283 114 l 399 114 l 399 0 z "},"":{"ha":1004,"x_min":13,"x_max":979,"o":"m 824 372 l 979 372 l 979 258 l 824 258 l 824 0 l 710 0 l 710 258 l 13 258 l 13 388 l 536 1001 l 663 1001 l 663 958 l 132 372 l 710 372 l 710 590 l 824 590 l 824 372 z "},"":{"ha":1622,"x_min":0,"x_max":1560,"o":"m 850 0 l 0 1000 l 150 1000 l 890 129 l 890 614 l 557 1000 l 704 1000 l 1446 129 l 1446 1000 l 1560 1000 l 1560 0 l 1406 0 l 1006 476 l 1006 0 l 850 0 z "},"":{"ha":1626,"x_min":68,"x_max":1626,"o":"m 1479 1000 l 1626 1000 l 779 0 l 624 0 l 624 476 l 224 0 l 68 0 l 68 1000 l 182 1000 l 182 129 l 924 1000 l 1069 1000 l 738 614 l 738 129 l 1479 1000 z "},"":{"ha":1075,"x_min":75,"x_max":1079,"o":"m 75 1001 l 190 1001 l 190 129 l 931 1001 l 1079 1001 l 231 0 l 75 0 l 75 1001 z "},"":{"ha":1075,"x_min":6,"x_max":1011,"o":"m 154 0 l 6 0 l 856 1001 l 1011 1001 l 1011 0 l 896 0 l 896 281 l 390 281 l 154 0 m 896 874 l 488 396 l 896 396 l 896 874 z "},"":{"ha":1075,"x_min":75,"x_max":1081,"o":"m 75 1001 l 231 1001 l 1081 0 l 931 0 l 693 281 l 190 281 l 190 0 l 75 0 l 75 1001 m 190 874 l 190 396 l 600 396 l 190 874 z "}}}
